<?xml version="1.0" encoding="UTF-8" standalone="no"?>
<!DOCTYPE svg PUBLIC "-//W3C//DTD SVG 1.1//EN"
 "http://www.w3.org/Graphics/SVG/1.1/DTD/svg11.dtd">
<!-- Generated by graphviz version 2.43.0 (0)
 -->
<!-- Title: %3 Pages: 1 -->
<svg width="1590pt" height="548pt"
 viewBox="0.00 0.00 1590.00 548.00" xmlns="http://www.w3.org/2000/svg" xmlns:xlink="http://www.w3.org/1999/xlink">
<g id="graph0" class="graph" transform="scale(1 1) rotate(0) translate(4 544)">
<title>%3</title>
<polygon fill="white" stroke="transparent" points="-4,4 -4,-544 1586,-544 1586,4 -4,4"/>
<!-- [root] aws_eip.eip_1 (expand) -->
<g id="node1" class="node">
<title>[root] aws_eip.eip_1 (expand)</title>
<polygon fill="none" stroke="black" points="115,-180 0,-180 0,-144 115,-144 115,-180"/>
<text text-anchor="middle" x="57.5" y="-158.3" font-family="Times,serif" font-size="14.00">aws_eip.eip_1</text>
</g>
<!-- [root] provider[&quot;registry.terraform.io/hashicorp/aws&quot;] -->
<g id="node18" class="node">
<title>[root] provider[&quot;registry.terraform.io/hashicorp/aws&quot;]</title>
<polygon fill="none" stroke="black" points="675.5,-36 350.24,-18 675.5,0 1000.76,-18 675.5,-36"/>
<text text-anchor="middle" x="675.5" y="-14.3" font-family="Times,serif" font-size="14.00">provider[&quot;registry.terraform.io/hashicorp/aws&quot;]</text>
</g>
<!-- [root] aws_eip.eip_1 (expand)&#45;&gt;[root] provider[&quot;registry.terraform.io/hashicorp/aws&quot;] -->
<g id="edge1" class="edge">
<title>[root] aws_eip.eip_1 (expand)&#45;&gt;[root] provider[&quot;registry.terraform.io/hashicorp/aws&quot;]</title>
<path fill="none" stroke="black" d="M70.22,-143.74C86.79,-122.74 117.88,-88.1 153.5,-72 210.07,-46.44 354.36,-33.07 476.94,-26.16"/>
<polygon fill="black" stroke="black" points="477.43,-29.64 487.22,-25.59 477.04,-22.65 477.43,-29.64"/>
</g>
<!-- [root] aws_internet_gateway.main_igw (expand) -->
<g id="node2" class="node">
<title>[root] aws_internet_gateway.main_igw (expand)</title>
<polygon fill="none" stroke="black" points="1013,-180 768,-180 768,-144 1013,-144 1013,-180"/>
<text text-anchor="middle" x="890.5" y="-158.3" font-family="Times,serif" font-size="14.00">aws_internet_gateway.main_igw</text>
</g>
<!-- [root] aws_vpc.main (expand) -->
<g id="node16" class="node">
<title>[root] aws_vpc.main (expand)</title>
<polygon fill="none" stroke="black" points="1039.5,-108 923.5,-108 923.5,-72 1039.5,-72 1039.5,-108"/>
<text text-anchor="middle" x="981.5" y="-86.3" font-family="Times,serif" font-size="14.00">aws_vpc.main</text>
</g>
<!-- [root] aws_internet_gateway.main_igw (expand)&#45;&gt;[root] aws_vpc.main (expand) -->
<g id="edge2" class="edge">
<title>[root] aws_internet_gateway.main_igw (expand)&#45;&gt;[root] aws_vpc.main (expand)</title>
<path fill="none" stroke="black" d="M912.99,-143.7C924.46,-134.88 938.56,-124.03 950.98,-114.47"/>
<polygon fill="black" stroke="black" points="953.47,-116.98 959.26,-108.1 949.2,-111.43 953.47,-116.98"/>
</g>
<!-- [root] aws_nat_gateway.natgw (expand) -->
<g id="node3" class="node">
<title>[root] aws_nat_gateway.natgw (expand)</title>
<polygon fill="none" stroke="black" points="535.5,-252 347.5,-252 347.5,-216 535.5,-216 535.5,-252"/>
<text text-anchor="middle" x="441.5" y="-230.3" font-family="Times,serif" font-size="14.00">aws_nat_gateway.natgw</text>
</g>
<!-- [root] aws_nat_gateway.natgw (expand)&#45;&gt;[root] aws_eip.eip_1 (expand) -->
<g id="edge3" class="edge">
<title>[root] aws_nat_gateway.natgw (expand)&#45;&gt;[root] aws_eip.eip_1 (expand)</title>
<path fill="none" stroke="black" d="M347.49,-219.37C286.68,-210.07 205.66,-196.75 125.01,-180.01"/>
<polygon fill="black" stroke="black" points="125.68,-176.58 115.17,-177.96 124.24,-183.43 125.68,-176.58"/>
</g>
<!-- [root] aws_nat_gateway.natgw (expand)&#45;&gt;[root] aws_internet_gateway.main_igw (expand) -->
<g id="edge4" class="edge">
<title>[root] aws_nat_gateway.natgw (expand)&#45;&gt;[root] aws_internet_gateway.main_igw (expand)</title>
<path fill="none" stroke="black" d="M535.63,-218.33C604.02,-207.66 697.13,-193.15 770.82,-181.66"/>
<polygon fill="black" stroke="black" points="771.74,-185.06 781.08,-180.06 770.66,-178.14 771.74,-185.06"/>
</g>
<!-- [root] aws_subnet.public1_az1 (expand) -->
<g id="node14" class="node">
<title>[root] aws_subnet.public1_az1 (expand)</title>
<polygon fill="none" stroke="black" points="535.5,-180 347.5,-180 347.5,-144 535.5,-144 535.5,-180"/>
<text text-anchor="middle" x="441.5" y="-158.3" font-family="Times,serif" font-size="14.00">aws_subnet.public1_az1</text>
</g>
<!-- [root] aws_nat_gateway.natgw (expand)&#45;&gt;[root] aws_subnet.public1_az1 (expand) -->
<g id="edge5" class="edge">
<title>[root] aws_nat_gateway.natgw (expand)&#45;&gt;[root] aws_subnet.public1_az1 (expand)</title>
<path fill="none" stroke="black" d="M441.5,-215.7C441.5,-207.98 441.5,-198.71 441.5,-190.11"/>
<polygon fill="black" stroke="black" points="445,-190.1 441.5,-180.1 438,-190.1 445,-190.1"/>
</g>
<!-- [root] aws_route_table.PrivateRT (expand) -->
<g id="node4" class="node">
<title>[root] aws_route_table.PrivateRT (expand)</title>
<polygon fill="none" stroke="black" points="545.5,-324 337.5,-324 337.5,-288 545.5,-288 545.5,-324"/>
<text text-anchor="middle" x="441.5" y="-302.3" font-family="Times,serif" font-size="14.00">aws_route_table.PrivateRT</text>
</g>
<!-- [root] aws_route_table.PrivateRT (expand)&#45;&gt;[root] aws_nat_gateway.natgw (expand) -->
<g id="edge6" class="edge">
<title>[root] aws_route_table.PrivateRT (expand)&#45;&gt;[root] aws_nat_gateway.natgw (expand)</title>
<path fill="none" stroke="black" d="M441.5,-287.7C441.5,-279.98 441.5,-270.71 441.5,-262.11"/>
<polygon fill="black" stroke="black" points="445,-262.1 441.5,-252.1 438,-262.1 445,-262.1"/>
</g>
<!-- [root] aws_route_table.public (expand) -->
<g id="node5" class="node">
<title>[root] aws_route_table.public (expand)</title>
<polygon fill="none" stroke="black" points="980.5,-252 800.5,-252 800.5,-216 980.5,-216 980.5,-252"/>
<text text-anchor="middle" x="890.5" y="-230.3" font-family="Times,serif" font-size="14.00">aws_route_table.public</text>
</g>
<!-- [root] aws_route_table.public (expand)&#45;&gt;[root] aws_internet_gateway.main_igw (expand) -->
<g id="edge7" class="edge">
<title>[root] aws_route_table.public (expand)&#45;&gt;[root] aws_internet_gateway.main_igw (expand)</title>
<path fill="none" stroke="black" d="M890.5,-215.7C890.5,-207.98 890.5,-198.71 890.5,-190.11"/>
<polygon fill="black" stroke="black" points="894,-190.1 890.5,-180.1 887,-190.1 894,-190.1"/>
</g>
<!-- [root] aws_route_table_association.PrivateRT1 (expand) -->
<g id="node6" class="node">
<title>[root] aws_route_table_association.PrivateRT1 (expand)</title>
<polygon fill="none" stroke="black" points="530,-396 227,-396 227,-360 530,-360 530,-396"/>
<text text-anchor="middle" x="378.5" y="-374.3" font-family="Times,serif" font-size="14.00">aws_route_table_association.PrivateRT1</text>
</g>
<!-- [root] aws_route_table_association.PrivateRT1 (expand)&#45;&gt;[root] aws_route_table.PrivateRT (expand) -->
<g id="edge8" class="edge">
<title>[root] aws_route_table_association.PrivateRT1 (expand)&#45;&gt;[root] aws_route_table.PrivateRT (expand)</title>
<path fill="none" stroke="black" d="M394.07,-359.7C401.7,-351.22 411.02,-340.86 419.38,-331.58"/>
<polygon fill="black" stroke="black" points="422.02,-333.88 426.11,-324.1 416.81,-329.2 422.02,-333.88"/>
</g>
<!-- [root] aws_subnet.private1_az1 (expand) -->
<g id="node12" class="node">
<title>[root] aws_subnet.private1_az1 (expand)</title>
<polygon fill="none" stroke="black" points="329.5,-180 133.5,-180 133.5,-144 329.5,-144 329.5,-180"/>
<text text-anchor="middle" x="231.5" y="-158.3" font-family="Times,serif" font-size="14.00">aws_subnet.private1_az1</text>
</g>
<!-- [root] aws_route_table_association.PrivateRT1 (expand)&#45;&gt;[root] aws_subnet.private1_az1 (expand) -->
<g id="edge9" class="edge">
<title>[root] aws_route_table_association.PrivateRT1 (expand)&#45;&gt;[root] aws_subnet.private1_az1 (expand)</title>
<path fill="none" stroke="black" d="M360.37,-359.7C350.4,-349.73 338.14,-336.7 328.5,-324 294.56,-279.29 262.44,-221.97 245.01,-189.18"/>
<polygon fill="black" stroke="black" points="248.05,-187.43 240.29,-180.22 241.86,-190.7 248.05,-187.43"/>
</g>
<!-- [root] aws_route_table_association.PrivateRT2 (expand) -->
<g id="node7" class="node">
<title>[root] aws_route_table_association.PrivateRT2 (expand)</title>
<polygon fill="none" stroke="black" points="851,-396 548,-396 548,-360 851,-360 851,-396"/>
<text text-anchor="middle" x="699.5" y="-374.3" font-family="Times,serif" font-size="14.00">aws_route_table_association.PrivateRT2</text>
</g>
<!-- [root] aws_route_table_association.PrivateRT2 (expand)&#45;&gt;[root] aws_route_table.PrivateRT (expand) -->
<g id="edge10" class="edge">
<title>[root] aws_route_table_association.PrivateRT2 (expand)&#45;&gt;[root] aws_route_table.PrivateRT (expand)</title>
<path fill="none" stroke="black" d="M636.72,-359.97C599.88,-349.97 553.17,-337.3 514.68,-326.85"/>
<polygon fill="black" stroke="black" points="515.13,-323.35 504.57,-324.11 513.3,-330.11 515.13,-323.35"/>
</g>
<!-- [root] aws_subnet.private2_az2 (expand) -->
<g id="node13" class="node">
<title>[root] aws_subnet.private2_az2 (expand)</title>
<polygon fill="none" stroke="black" points="749.5,-180 553.5,-180 553.5,-144 749.5,-144 749.5,-180"/>
<text text-anchor="middle" x="651.5" y="-158.3" font-family="Times,serif" font-size="14.00">aws_subnet.private2_az2</text>
</g>
<!-- [root] aws_route_table_association.PrivateRT2 (expand)&#45;&gt;[root] aws_subnet.private2_az2 (expand) -->
<g id="edge11" class="edge">
<title>[root] aws_route_table_association.PrivateRT2 (expand)&#45;&gt;[root] aws_subnet.private2_az2 (expand)</title>
<path fill="none" stroke="black" d="M684.74,-359.57C677.31,-349.76 668.96,-336.93 664.5,-324 648.98,-278.98 648.33,-222.85 649.65,-190.16"/>
<polygon fill="black" stroke="black" points="653.15,-190.18 650.15,-180.02 646.16,-189.83 653.15,-190.18"/>
</g>
<!-- [root] aws_route_table_association.PublicRT1 (expand) -->
<g id="node8" class="node">
<title>[root] aws_route_table_association.PublicRT1 (expand)</title>
<polygon fill="none" stroke="black" points="969.5,-324 673.5,-324 673.5,-288 969.5,-288 969.5,-324"/>
<text text-anchor="middle" x="821.5" y="-302.3" font-family="Times,serif" font-size="14.00">aws_route_table_association.PublicRT1</text>
</g>
<!-- [root] aws_route_table_association.PublicRT1 (expand)&#45;&gt;[root] aws_route_table.public (expand) -->
<g id="edge12" class="edge">
<title>[root] aws_route_table_association.PublicRT1 (expand)&#45;&gt;[root] aws_route_table.public (expand)</title>
<path fill="none" stroke="black" d="M838.56,-287.7C847,-279.14 857.32,-268.66 866.54,-259.3"/>
<polygon fill="black" stroke="black" points="869.11,-261.68 873.64,-252.1 864.13,-256.77 869.11,-261.68"/>
</g>
<!-- [root] aws_route_table_association.PublicRT1 (expand)&#45;&gt;[root] aws_subnet.public1_az1 (expand) -->
<g id="edge13" class="edge">
<title>[root] aws_route_table_association.PublicRT1 (expand)&#45;&gt;[root] aws_subnet.public1_az1 (expand)</title>
<path fill="none" stroke="black" d="M775.66,-287.87C705.67,-261.72 572.35,-211.9 496.99,-183.74"/>
<polygon fill="black" stroke="black" points="497.8,-180.3 487.2,-180.08 495.35,-186.86 497.8,-180.3"/>
</g>
<!-- [root] aws_route_table_association.PublicRT2 (expand) -->
<g id="node9" class="node">
<title>[root] aws_route_table_association.PublicRT2 (expand)</title>
<polygon fill="none" stroke="black" points="1283.5,-324 987.5,-324 987.5,-288 1283.5,-288 1283.5,-324"/>
<text text-anchor="middle" x="1135.5" y="-302.3" font-family="Times,serif" font-size="14.00">aws_route_table_association.PublicRT2</text>
</g>
<!-- [root] aws_route_table_association.PublicRT2 (expand)&#45;&gt;[root] aws_route_table.public (expand) -->
<g id="edge14" class="edge">
<title>[root] aws_route_table_association.PublicRT2 (expand)&#45;&gt;[root] aws_route_table.public (expand)</title>
<path fill="none" stroke="black" d="M1075.88,-287.97C1041.05,-278.01 996.92,-265.41 960.46,-254.99"/>
<polygon fill="black" stroke="black" points="960.96,-251.49 950.39,-252.11 959.04,-258.22 960.96,-251.49"/>
</g>
<!-- [root] aws_subnet.public2_az2 (expand) -->
<g id="node15" class="node">
<title>[root] aws_subnet.public2_az2 (expand)</title>
<polygon fill="none" stroke="black" points="1219.5,-180 1031.5,-180 1031.5,-144 1219.5,-144 1219.5,-180"/>
<text text-anchor="middle" x="1125.5" y="-158.3" font-family="Times,serif" font-size="14.00">aws_subnet.public2_az2</text>
</g>
<!-- [root] aws_route_table_association.PublicRT2 (expand)&#45;&gt;[root] aws_subnet.public2_az2 (expand) -->
<g id="edge15" class="edge">
<title>[root] aws_route_table_association.PublicRT2 (expand)&#45;&gt;[root] aws_subnet.public2_az2 (expand)</title>
<path fill="none" stroke="black" d="M1134.29,-287.87C1132.59,-263.67 1129.46,-219.21 1127.43,-190.39"/>
<polygon fill="black" stroke="black" points="1130.9,-189.92 1126.71,-180.19 1123.92,-190.41 1130.9,-189.92"/>
</g>
<!-- [root] aws_subnet.db1_az1 (expand) -->
<g id="node10" class="node">
<title>[root] aws_subnet.db1_az1 (expand)</title>
<polygon fill="none" stroke="black" points="1401,-180 1238,-180 1238,-144 1401,-144 1401,-180"/>
<text text-anchor="middle" x="1319.5" y="-158.3" font-family="Times,serif" font-size="14.00">aws_subnet.db1_az1</text>
</g>
<!-- [root] aws_subnet.db1_az1 (expand)&#45;&gt;[root] aws_vpc.main (expand) -->
<g id="edge16" class="edge">
<title>[root] aws_subnet.db1_az1 (expand)&#45;&gt;[root] aws_vpc.main (expand)</title>
<path fill="none" stroke="black" d="M1237.9,-145.26C1172.57,-132.59 1086.3,-115.66 1051.5,-108 1050.77,-107.84 1050.03,-107.68 1049.29,-107.51"/>
<polygon fill="black" stroke="black" points="1050.04,-104.09 1039.52,-105.29 1048.49,-110.92 1050.04,-104.09"/>
</g>
<!-- [root] data.aws_availability_zones.available (expand) -->
<g id="node17" class="node">
<title>[root] data.aws_availability_zones.available (expand)</title>
<polygon fill="none" stroke="black" points="905,-108 624,-108 624,-72 905,-72 905,-108"/>
<text text-anchor="middle" x="764.5" y="-86.3" font-family="Times,serif" font-size="14.00">data.aws_availability_zones.available</text>
</g>
<!-- [root] aws_subnet.db1_az1 (expand)&#45;&gt;[root] data.aws_availability_zones.available (expand) -->
<g id="edge17" class="edge">
<title>[root] aws_subnet.db1_az1 (expand)&#45;&gt;[root] data.aws_availability_zones.available (expand)</title>
<path fill="none" stroke="black" d="M1237.69,-145.43C1234.59,-144.93 1231.52,-144.45 1228.5,-144 1220.63,-142.82 1047.82,-123.14 915.39,-108.11"/>
<polygon fill="black" stroke="black" points="915.46,-104.59 905.12,-106.94 914.67,-111.55 915.46,-104.59"/>
</g>
<!-- [root] var.db_cidr1 -->
<g id="node19" class="node">
<title>[root] var.db_cidr1</title>
<polygon fill="none" stroke="black" points="1365.5,-108 1267.5,-108 1267.5,-72 1371.5,-72 1371.5,-102 1365.5,-108"/>
<polyline fill="none" stroke="black" points="1365.5,-108 1365.5,-102 "/>
<polyline fill="none" stroke="black" points="1371.5,-102 1365.5,-102 "/>
<text text-anchor="middle" x="1319.5" y="-86.3" font-family="Times,serif" font-size="14.00">var.db_cidr1</text>
</g>
<!-- [root] aws_subnet.db1_az1 (expand)&#45;&gt;[root] var.db_cidr1 -->
<g id="edge18" class="edge">
<title>[root] aws_subnet.db1_az1 (expand)&#45;&gt;[root] var.db_cidr1</title>
<path fill="none" stroke="black" d="M1319.5,-143.7C1319.5,-135.98 1319.5,-126.71 1319.5,-118.11"/>
<polygon fill="black" stroke="black" points="1323,-118.1 1319.5,-108.1 1316,-118.1 1323,-118.1"/>
</g>
<!-- [root] aws_subnet.db2_az2 (expand) -->
<g id="node11" class="node">
<title>[root] aws_subnet.db2_az2 (expand)</title>
<polygon fill="none" stroke="black" points="1582,-180 1419,-180 1419,-144 1582,-144 1582,-180"/>
<text text-anchor="middle" x="1500.5" y="-158.3" font-family="Times,serif" font-size="14.00">aws_subnet.db2_az2</text>
</g>
<!-- [root] aws_subnet.db2_az2 (expand)&#45;&gt;[root] aws_vpc.main (expand) -->
<g id="edge19" class="edge">
<title>[root] aws_subnet.db2_az2 (expand)&#45;&gt;[root] aws_vpc.main (expand)</title>
<path fill="none" stroke="black" d="M1418.7,-145.38C1415.6,-144.9 1412.52,-144.43 1409.5,-144 1251.21,-121.3 1209.13,-134.93 1051.5,-108 1050.9,-107.9 1050.3,-107.79 1049.7,-107.69"/>
<polygon fill="black" stroke="black" points="1050.29,-104.24 1039.81,-105.8 1048.98,-111.11 1050.29,-104.24"/>
</g>
<!-- [root] aws_subnet.db2_az2 (expand)&#45;&gt;[root] data.aws_availability_zones.available (expand) -->
<g id="edge20" class="edge">
<title>[root] aws_subnet.db2_az2 (expand)&#45;&gt;[root] data.aws_availability_zones.available (expand)</title>
<path fill="none" stroke="black" d="M1418.72,-145.27C1415.61,-144.82 1412.53,-144.39 1409.5,-144 1193.95,-116.12 1135.83,-128.06 914.97,-108.01"/>
<polygon fill="black" stroke="black" points="915.29,-104.53 905.01,-107.1 914.65,-111.5 915.29,-104.53"/>
</g>
<!-- [root] var.db_cidr2 -->
<g id="node20" class="node">
<title>[root] var.db_cidr2</title>
<polygon fill="none" stroke="black" points="1546.5,-108 1448.5,-108 1448.5,-72 1552.5,-72 1552.5,-102 1546.5,-108"/>
<polyline fill="none" stroke="black" points="1546.5,-108 1546.5,-102 "/>
<polyline fill="none" stroke="black" points="1552.5,-102 1546.5,-102 "/>
<text text-anchor="middle" x="1500.5" y="-86.3" font-family="Times,serif" font-size="14.00">var.db_cidr2</text>
</g>
<!-- [root] aws_subnet.db2_az2 (expand)&#45;&gt;[root] var.db_cidr2 -->
<g id="edge21" class="edge">
<title>[root] aws_subnet.db2_az2 (expand)&#45;&gt;[root] var.db_cidr2</title>
<path fill="none" stroke="black" d="M1500.5,-143.7C1500.5,-135.98 1500.5,-126.71 1500.5,-118.11"/>
<polygon fill="black" stroke="black" points="1504,-118.1 1500.5,-108.1 1497,-118.1 1504,-118.1"/>
</g>
<!-- [root] aws_subnet.private1_az1 (expand)&#45;&gt;[root] aws_vpc.main (expand) -->
<g id="edge22" class="edge">
<title>[root] aws_subnet.private1_az1 (expand)&#45;&gt;[root] aws_vpc.main (expand)</title>
<path fill="none" stroke="black" d="M329.7,-145.03C332.66,-144.66 335.6,-144.32 338.5,-144 593.01,-115.88 660.46,-147.21 913.5,-108 913.6,-107.98 913.7,-107.97 913.8,-107.95"/>
<polygon fill="black" stroke="black" points="914.16,-111.44 923.4,-106.26 912.95,-104.55 914.16,-111.44"/>
</g>
<!-- [root] aws_subnet.private1_az1 (expand)&#45;&gt;[root] data.aws_availability_zones.available (expand) -->
<g id="edge23" class="edge">
<title>[root] aws_subnet.private1_az1 (expand)&#45;&gt;[root] data.aws_availability_zones.available (expand)</title>
<path fill="none" stroke="black" d="M329.73,-145.26C332.68,-144.83 335.61,-144.41 338.5,-144 429.61,-131.1 531.93,-118.31 613.45,-108.53"/>
<polygon fill="black" stroke="black" points="614.28,-111.96 623.8,-107.29 613.45,-105.01 614.28,-111.96"/>
</g>
<!-- [root] var.private_cidr1 -->
<g id="node21" class="node">
<title>[root] var.private_cidr1</title>
<polygon fill="none" stroke="black" points="294,-108 163,-108 163,-72 300,-72 300,-102 294,-108"/>
<polyline fill="none" stroke="black" points="294,-108 294,-102 "/>
<polyline fill="none" stroke="black" points="300,-102 294,-102 "/>
<text text-anchor="middle" x="231.5" y="-86.3" font-family="Times,serif" font-size="14.00">var.private_cidr1</text>
</g>
<!-- [root] aws_subnet.private1_az1 (expand)&#45;&gt;[root] var.private_cidr1 -->
<g id="edge24" class="edge">
<title>[root] aws_subnet.private1_az1 (expand)&#45;&gt;[root] var.private_cidr1</title>
<path fill="none" stroke="black" d="M231.5,-143.7C231.5,-135.98 231.5,-126.71 231.5,-118.11"/>
<polygon fill="black" stroke="black" points="235,-118.1 231.5,-108.1 228,-118.1 235,-118.1"/>
</g>
<!-- [root] aws_subnet.private2_az2 (expand)&#45;&gt;[root] aws_vpc.main (expand) -->
<g id="edge25" class="edge">
<title>[root] aws_subnet.private2_az2 (expand)&#45;&gt;[root] aws_vpc.main (expand)</title>
<path fill="none" stroke="black" d="M740.84,-143.97C791.59,-134.04 856.24,-120.94 913.5,-108 913.6,-107.98 913.7,-107.95 913.8,-107.93"/>
<polygon fill="black" stroke="black" points="914.35,-111.4 923.3,-105.73 912.77,-104.58 914.35,-111.4"/>
</g>
<!-- [root] aws_subnet.private2_az2 (expand)&#45;&gt;[root] data.aws_availability_zones.available (expand) -->
<g id="edge26" class="edge">
<title>[root] aws_subnet.private2_az2 (expand)&#45;&gt;[root] data.aws_availability_zones.available (expand)</title>
<path fill="none" stroke="black" d="M679.14,-143.88C693.92,-134.72 712.29,-123.34 728.2,-113.48"/>
<polygon fill="black" stroke="black" points="730.09,-116.43 736.75,-108.19 726.41,-110.48 730.09,-116.43"/>
</g>
<!-- [root] var.private_cidr2 -->
<g id="node22" class="node">
<title>[root] var.private_cidr2</title>
<polygon fill="none" stroke="black" points="600,-108 469,-108 469,-72 606,-72 606,-102 600,-108"/>
<polyline fill="none" stroke="black" points="600,-108 600,-102 "/>
<polyline fill="none" stroke="black" points="606,-102 600,-102 "/>
<text text-anchor="middle" x="537.5" y="-86.3" font-family="Times,serif" font-size="14.00">var.private_cidr2</text>
</g>
<!-- [root] aws_subnet.private2_az2 (expand)&#45;&gt;[root] var.private_cidr2 -->
<g id="edge27" class="edge">
<title>[root] aws_subnet.private2_az2 (expand)&#45;&gt;[root] var.private_cidr2</title>
<path fill="none" stroke="black" d="M623.61,-143.88C608.71,-134.72 590.17,-123.34 574.12,-113.48"/>
<polygon fill="black" stroke="black" points="575.85,-110.44 565.49,-108.19 572.19,-116.41 575.85,-110.44"/>
</g>
<!-- [root] aws_subnet.public1_az1 (expand)&#45;&gt;[root] aws_vpc.main (expand) -->
<g id="edge28" class="edge">
<title>[root] aws_subnet.public1_az1 (expand)&#45;&gt;[root] aws_vpc.main (expand)</title>
<path fill="none" stroke="black" d="M535.76,-145.19C538.71,-144.77 541.62,-144.38 544.5,-144 707.88,-122.57 751.13,-136.06 913.5,-108 913.6,-107.98 913.7,-107.96 913.8,-107.95"/>
<polygon fill="black" stroke="black" points="914.21,-111.43 923.38,-106.13 912.9,-104.56 914.21,-111.43"/>
</g>
<!-- [root] aws_subnet.public1_az1 (expand)&#45;&gt;[root] data.aws_availability_zones.available (expand) -->
<g id="edge29" class="edge">
<title>[root] aws_subnet.public1_az1 (expand)&#45;&gt;[root] data.aws_availability_zones.available (expand)</title>
<path fill="none" stroke="black" d="M520.1,-143.97C567.18,-133.76 627.16,-120.76 675.92,-110.2"/>
<polygon fill="black" stroke="black" points="676.79,-113.59 685.83,-108.05 675.31,-106.75 676.79,-113.59"/>
</g>
<!-- [root] var.public_cidr1 -->
<g id="node23" class="node">
<title>[root] var.public_cidr1</title>
<polygon fill="none" stroke="black" points="444.5,-108 320.5,-108 320.5,-72 450.5,-72 450.5,-102 444.5,-108"/>
<polyline fill="none" stroke="black" points="444.5,-108 444.5,-102 "/>
<polyline fill="none" stroke="black" points="450.5,-102 444.5,-102 "/>
<text text-anchor="middle" x="385.5" y="-86.3" font-family="Times,serif" font-size="14.00">var.public_cidr1</text>
</g>
<!-- [root] aws_subnet.public1_az1 (expand)&#45;&gt;[root] var.public_cidr1 -->
<g id="edge30" class="edge">
<title>[root] aws_subnet.public1_az1 (expand)&#45;&gt;[root] var.public_cidr1</title>
<path fill="none" stroke="black" d="M427.66,-143.7C421.01,-135.39 412.92,-125.28 405.61,-116.14"/>
<polygon fill="black" stroke="black" points="408.16,-113.73 399.18,-108.1 402.7,-118.1 408.16,-113.73"/>
</g>
<!-- [root] aws_subnet.public2_az2 (expand)&#45;&gt;[root] aws_vpc.main (expand) -->
<g id="edge31" class="edge">
<title>[root] aws_subnet.public2_az2 (expand)&#45;&gt;[root] aws_vpc.main (expand)</title>
<path fill="none" stroke="black" d="M1090.27,-143.88C1070.92,-134.47 1046.73,-122.71 1026.07,-112.67"/>
<polygon fill="black" stroke="black" points="1027.39,-109.41 1016.86,-108.19 1024.33,-115.71 1027.39,-109.41"/>
</g>
<!-- [root] aws_subnet.public2_az2 (expand)&#45;&gt;[root] data.aws_availability_zones.available (expand) -->
<g id="edge32" class="edge">
<title>[root] aws_subnet.public2_az2 (expand)&#45;&gt;[root] data.aws_availability_zones.available (expand)</title>
<path fill="none" stroke="black" d="M1037.65,-143.97C984.7,-133.7 917.16,-120.6 862.48,-110"/>
<polygon fill="black" stroke="black" points="862.91,-106.52 852.43,-108.05 861.58,-113.39 862.91,-106.52"/>
</g>
<!-- [root] var.public_cidr2 -->
<g id="node24" class="node">
<title>[root] var.public_cidr2</title>
<polygon fill="none" stroke="black" points="1184.5,-108 1060.5,-108 1060.5,-72 1190.5,-72 1190.5,-102 1184.5,-108"/>
<polyline fill="none" stroke="black" points="1184.5,-108 1184.5,-102 "/>
<polyline fill="none" stroke="black" points="1190.5,-102 1184.5,-102 "/>
<text text-anchor="middle" x="1125.5" y="-86.3" font-family="Times,serif" font-size="14.00">var.public_cidr2</text>
</g>
<!-- [root] aws_subnet.public2_az2 (expand)&#45;&gt;[root] var.public_cidr2 -->
<g id="edge33" class="edge">
<title>[root] aws_subnet.public2_az2 (expand)&#45;&gt;[root] var.public_cidr2</title>
<path fill="none" stroke="black" d="M1125.5,-143.7C1125.5,-135.98 1125.5,-126.71 1125.5,-118.11"/>
<polygon fill="black" stroke="black" points="1129,-118.1 1125.5,-108.1 1122,-118.1 1129,-118.1"/>
</g>
<!-- [root] aws_vpc.main (expand)&#45;&gt;[root] provider[&quot;registry.terraform.io/hashicorp/aws&quot;] -->
<g id="edge34" class="edge">
<title>[root] aws_vpc.main (expand)&#45;&gt;[root] provider[&quot;registry.terraform.io/hashicorp/aws&quot;]</title>
<path fill="none" stroke="black" d="M923.29,-74.34C919.98,-73.54 916.7,-72.76 913.5,-72 858.21,-58.94 795.48,-45 748.31,-34.7"/>
<polygon fill="black" stroke="black" points="749.01,-31.27 738.49,-32.56 747.51,-38.11 749.01,-31.27"/>
</g>
<!-- [root] var.vpc_cidr -->
<g id="node25" class="node">
<title>[root] var.vpc_cidr</title>
<polygon fill="none" stroke="black" points="1114.5,-36 1018.5,-36 1018.5,0 1120.5,0 1120.5,-30 1114.5,-36"/>
<polyline fill="none" stroke="black" points="1114.5,-36 1114.5,-30 "/>
<polyline fill="none" stroke="black" points="1120.5,-30 1114.5,-30 "/>
<text text-anchor="middle" x="1069.5" y="-14.3" font-family="Times,serif" font-size="14.00">var.vpc_cidr</text>
</g>
<!-- [root] aws_vpc.main (expand)&#45;&gt;[root] var.vpc_cidr -->
<g id="edge35" class="edge">
<title>[root] aws_vpc.main (expand)&#45;&gt;[root] var.vpc_cidr</title>
<path fill="none" stroke="black" d="M1003.25,-71.7C1014.34,-62.88 1027.97,-52.03 1039.99,-42.47"/>
<polygon fill="black" stroke="black" points="1042.35,-45.07 1048,-36.1 1037.99,-39.59 1042.35,-45.07"/>
</g>
<!-- [root] data.aws_availability_zones.available (expand)&#45;&gt;[root] provider[&quot;registry.terraform.io/hashicorp/aws&quot;] -->
<g id="edge36" class="edge">
<title>[root] data.aws_availability_zones.available (expand)&#45;&gt;[root] provider[&quot;registry.terraform.io/hashicorp/aws&quot;]</title>
<path fill="none" stroke="black" d="M742.5,-71.7C730.76,-62.46 716.19,-51 703.63,-41.13"/>
<polygon fill="black" stroke="black" points="705.75,-38.34 695.73,-34.91 701.42,-43.84 705.75,-38.34"/>
</g>
<!-- [root] provider[&quot;registry.terraform.io/hashicorp/aws&quot;] (close) -->
<g id="node26" class="node">
<title>[root] provider[&quot;registry.terraform.io/hashicorp/aws&quot;] (close)</title>
<ellipse fill="none" stroke="black" cx="1033.5" cy="-450" rx="291.65" ry="18"/>
<text text-anchor="middle" x="1033.5" y="-446.3" font-family="Times,serif" font-size="14.00">[root] provider[&quot;registry.terraform.io/hashicorp/aws&quot;] (close)</text>
</g>
<!-- [root] provider[&quot;registry.terraform.io/hashicorp/aws&quot;] (close)&#45;&gt;[root] aws_route_table_association.PrivateRT1 (expand) -->
<g id="edge37" class="edge">
<title>[root] provider[&quot;registry.terraform.io/hashicorp/aws&quot;] (close)&#45;&gt;[root] aws_route_table_association.PrivateRT1 (expand)</title>
<path fill="none" stroke="black" d="M894.59,-434.15C790.9,-423.07 648.94,-407.9 540.15,-396.28"/>
<polygon fill="black" stroke="black" points="540.38,-392.78 530.06,-395.2 539.63,-399.74 540.38,-392.78"/>
</g>
<!-- [root] provider[&quot;registry.terraform.io/hashicorp/aws&quot;] (close)&#45;&gt;[root] aws_route_table_association.PrivateRT2 (expand) -->
<g id="edge38" class="edge">
<title>[root] provider[&quot;registry.terraform.io/hashicorp/aws&quot;] (close)&#45;&gt;[root] aws_route_table_association.PrivateRT2 (expand)</title>
<path fill="none" stroke="black" d="M955.19,-432.59C905.92,-422.26 842.14,-408.9 790.61,-398.09"/>
<polygon fill="black" stroke="black" points="791.31,-394.67 780.81,-396.04 789.87,-401.52 791.31,-394.67"/>
</g>
<!-- [root] provider[&quot;registry.terraform.io/hashicorp/aws&quot;] (close)&#45;&gt;[root] aws_route_table_association.PublicRT1 (expand) -->
<g id="edge39" class="edge">
<title>[root] provider[&quot;registry.terraform.io/hashicorp/aws&quot;] (close)&#45;&gt;[root] aws_route_table_association.PublicRT1 (expand)</title>
<path fill="none" stroke="black" d="M1007.93,-431.87C969.81,-406.34 898.02,-358.25 855.51,-329.78"/>
<polygon fill="black" stroke="black" points="857.42,-326.85 847.16,-324.19 853.52,-332.66 857.42,-326.85"/>
</g>
<!-- [root] provider[&quot;registry.terraform.io/hashicorp/aws&quot;] (close)&#45;&gt;[root] aws_route_table_association.PublicRT2 (expand) -->
<g id="edge40" class="edge">
<title>[root] provider[&quot;registry.terraform.io/hashicorp/aws&quot;] (close)&#45;&gt;[root] aws_route_table_association.PublicRT2 (expand)</title>
<path fill="none" stroke="black" d="M1045.8,-431.87C1063.57,-407.14 1096.54,-361.24 1117.17,-332.51"/>
<polygon fill="black" stroke="black" points="1120.16,-334.35 1123.15,-324.19 1114.48,-330.27 1120.16,-334.35"/>
</g>
<!-- [root] provider[&quot;registry.terraform.io/hashicorp/aws&quot;] (close)&#45;&gt;[root] aws_subnet.db1_az1 (expand) -->
<g id="edge41" class="edge">
<title>[root] provider[&quot;registry.terraform.io/hashicorp/aws&quot;] (close)&#45;&gt;[root] aws_subnet.db1_az1 (expand)</title>
<path fill="none" stroke="black" d="M1109.22,-432.59C1168.52,-415.65 1248.15,-383.11 1292.5,-324 1321.89,-284.83 1323.91,-225.18 1322.11,-190.55"/>
<polygon fill="black" stroke="black" points="1325.58,-189.99 1321.42,-180.24 1318.6,-190.45 1325.58,-189.99"/>
</g>
<!-- [root] provider[&quot;registry.terraform.io/hashicorp/aws&quot;] (close)&#45;&gt;[root] aws_subnet.db2_az2 (expand) -->
<g id="edge42" class="edge">
<title>[root] provider[&quot;registry.terraform.io/hashicorp/aws&quot;] (close)&#45;&gt;[root] aws_subnet.db2_az2 (expand)</title>
<path fill="none" stroke="black" d="M1140.52,-433.25C1175.67,-425.28 1214.02,-413.45 1246.5,-396 1348.44,-341.22 1441.31,-236.24 1480.64,-188.16"/>
<polygon fill="black" stroke="black" points="1483.57,-190.12 1487.14,-180.14 1478.13,-185.71 1483.57,-190.12"/>
</g>
<!-- [root] root -->
<g id="node27" class="node">
<title>[root] root</title>
<ellipse fill="none" stroke="black" cx="1033.5" cy="-522" rx="58.49" ry="18"/>
<text text-anchor="middle" x="1033.5" y="-518.3" font-family="Times,serif" font-size="14.00">[root] root</text>
</g>
<!-- [root] root&#45;&gt;[root] provider[&quot;registry.terraform.io/hashicorp/aws&quot;] (close) -->
<g id="edge43" class="edge">
<title>[root] root&#45;&gt;[root] provider[&quot;registry.terraform.io/hashicorp/aws&quot;] (close)</title>
<path fill="none" stroke="black" d="M1033.5,-503.7C1033.5,-495.98 1033.5,-486.71 1033.5,-478.11"/>
<polygon fill="black" stroke="black" points="1037,-478.1 1033.5,-468.1 1030,-478.1 1037,-478.1"/>
</g>
</g>
</svg>
